PathFileType	4	(X/Y/Z)	C:/Users/beibeiliu/ov580/test_trc\sequence.36_training_dense_right.trc
DataRate	CameraRate	NumFrames	NumMarkers	Units	OrigDataRate	OrigDataStartFrame	OrigNumFrames
120	120	23	19	mm	120	64	255
Frame#	Time	ThumbCMC			ThumbMCP			ThumbIP			ThumbTip			IndexMCP			IndexPIP			IndexTip			MiddleMCP			MiddlePIP			MiddleTip			RingMCP			RingPIP			RingTip			PinkyMCP			PinkyPIP			PinkyTip			BackHand1			BackHand2			BackHand3	
		X0	Y0	Z0	X1	Y1	Z1	X2	Y2	Z2	X3	Y3	Z3	X4	Y4	Z4	X5	Y5	Z5	X6	Y6	Z6	X7	Y7	Z7	X8	Y8	Z8	X9	Y9	Z9	X10	Y10	Z10	X11	Y11	Z11	X12	Y12	Z12	X13	Y13	Z13	X14	Y14	Z14	X15	Y15	Z15	X16	Y16	Z16	X17	Y17	Z17	X18	Y18	Z18	
63	0.525	164.174	22.981	102.395	148.483	22.8447	74.7028	143.735	24.869	50.8549	146.499	16.7235	26.269	191.11	46.3116	52.4841	168.843	46.9514	31.3979	151.141	24.4768	41.0362	200.284	32.0825	41.0417	180.213	30.4685	21.6319	155.599	8.9554	39.5991	202.876	11.6468	40.4544	178.579	8.20261	27.5566	163.05	-1.28858	47.5896	205.951	-6.16453	43.8577	185.566	-1.66951	33.1768	165.964	-6.11479	51.5259	214.353	2.55858	86.3027	207.568	-10.786	113.241	198.014	21.3456	105.759	
64	0.533333	163.115	23.0751	115.083	146.564	28.7694	81.5273	141.525	28.4696	61.2613	147.595	21.7305	36.066	189.038	54.7715	63.8255	167.314	50.3068	39.9342	150.272	29.6473	49.8052	198.077	40.6537	50.7364	179.273	33.206	29.5724	155.126	18.3909	45.0466	202.16	18.4099	48.3747	175.226	11.7882	35.1359	162.096	5.4474	54.4536	204.814	1.47516	51.8203	182.594	1.71306	40.7152	165.284	-4.29469	58.2433	213.498	5.77937	93.2834	208.281	-6.53555	120.084	197.876	22.3005	115.167	
65	0.541667	162.28	28.0697	121.56	148.561	29.6802	91.9689	143.361	32.9015	69.4985	146.49	26.2434	47.2088	189.504	57.3139	71.9081	171.568	50.5833	47.4616	151.802	34.7961	55.6469	200.23	42.1839	54.8606	179.463	38.025	37.8106	155.987	23.4767	52.1894	200.513	25.732	55.2548	177.162	21.0767	44.2256	161.769	10.6968	65.4179	204.3	6.78911	58.2401	181.261	4.21199	48.9422	167.338	2.23728	66.3913	212.488	8.40127	104.161	205.315	-2.78028	128.955	200.863	26.5946	121.769	
66	0.55	161.229	31.0821	128.656	147.026	32.0368	100.444	143.392	36.8227	74.0145	148.276	29.2194	53.9978	188.656	59.4572	75.9821	171.248	58.9315	55.9042	149.017	36.4924	66.2688	199.251	45.4483	66.7984	177.957	41.0384	45.24	155.62	21.9687	62.856	201.423	27.8201	59.9564	175.339	21.1476	51.1845	162.263	12.921	71.0522	205.783	9.43321	66.0874	185.954	9.37539	54.759	166.927	1.2679	74.0357	214.845	12.1082	108.455	206.457	-0.291382	133.039	197.471	27.7129	131.091	
67	0.558333	160.898	33.5979	135.762	147.54	35.3419	105.993	147.405	37.5016	80.7862	147.046	32.6483	59.9781	189.589	62.0709	83.0892	170.204	60.2854	62.885	152.152	38.2195	71.5388	196.155	51.2273	70.6702	178.36	43.3681	51.8905	156.863	24.7005	66.781	203.802	28.5157	70.6445	179.334	26.0653	56.698	163.429	14.3966	76.4016	206.951	9.44762	71.9809	181.589	13.0542	62.1843	166.997	5.36831	78.7115	212.668	14.0413	117.822	208.222	-0.804868	141.376	197.592	33.4124	136.621	
68	0.566667	162.579	33.8291	140.176	149.378	36.1472	112.9	142.659	41.53	86.5047	147.117	35.8499	63.9423	191.256	63.3412	90.7169	175.621	61.9387	66.8106	152.296	44.6481	75.9907	200.021	51.0326	73.6167	179.599	45.1822	57.3027	157.547	26.6092	72.8966	204.859	30.4215	73.0796	180.068	29.497	62.009	162.374	17.4382	83.3648	206.844	13.9192	76.2679	187.779	16.3473	65.8733	167.31	10.312	85.1802	212.96	17.0274	123.207	209.298	3.21161	142.957	201.332	31.0735	139.538	
69	0.575	168.529	34.5669	140.108	151.942	38.1033	115.656	147.888	43.4496	88.3284	149.208	37.2531	69.3063	190.874	69.7439	92.1575	174.681	66.2198	71.3742	153.712	47.2356	77.8248	201.216	54.6543	80.6707	179.415	50.3679	61.6662	160.845	26.6619	76.422	206.862	33.567	78.7957	183.23	33.1778	65.7507	165.769	15.8724	82.8124	208.267	19.2256	79.6434	190.779	15.2553	66.6313	171.052	10.8842	82.2758	217.324	18.2026	123.409	208.308	6.12257	150.21	198.794	32.6842	146.975	
70	0.583333	169.368	33.5402	143.874	154.119	38.75	115.025	147.024	44.695	91.0128	151.565	38.9953	68.3204	194.564	68.923	91.8616	176.297	67.6367	73.0141	153.343	46.5904	80.7281	205.618	53.4222	82.2814	183.096	53.9852	63.6673	163.584	29.6409	74.7917	207.736	37.0264	81.5932	185.884	35.2161	66.0816	166.203	22.4261	83.015	212.712	21.3354	81.2728	191.583	19.2673	68.5298	173.694	17.2214	80.6728	218.505	19.435	123.812	212.174	7.92286	147.207	204.619	34.7399	147.204	
71	0.591667	171.477	34.5607	143.027	152.99	40.3335	117.293	153.856	42.0741	90.5684	155.232	38.2948	66.1335	196.553	69.9227	95.5766	180.409	64.7458	71.9253	158.607	49.6901	76.1216	205.143	57.5933	82.114	186.479	53.5851	62.9929	162.901	31.4164	77.6281	211.19	37.5889	80.331	191.753	31.587	64.7967	168.617	20.0818	82.2493	217.71	18.1829	84.3478	200.904	22.9889	68.2769	179.775	17.4733	76.4784	222.313	18.6	128.33	212.998	5.50141	152.37	203.022	32.0575	149.241	
72	0.6	172.965	32.1659	144.933	157.491	39.6673	113.597	156.307	42.2593	89.7068	159.179	37.2164	67.1599	200.437	67.3488	96.6258	182.488	64.9097	70.0061	162.8	44.9582	73.6679	209.162	55.7418	82.2492	190.616	49.2625	60.443	167.997	32.1283	71.548	215.946	37.8253	82.3762	192.946	35.3913	64.7393	174.232	18.2201	76.4313	221.901	19.7363	86.3338	203.317	22.7471	67.3139	180.416	14.5969	73.1617	224.174	19.7709	128.285	218.835	7.7393	147.532	205.47	37.0898	146.074	
73	0.608333	176.775	34.1999	140.945	156.834	39.5565	114.699	158.362	40.3607	90.2541	161.012	38.2188	68.0749	201.817	69.334	94.8979	184.265	69.2177	71.5628	165.455	48.841	69.8577	212.429	57.407	82.9189	196.919	52.8248	60.8944	172.358	32.4669	67.5584	219.856	39.238	83.1176	200.243	33.785	60.5341	178.928	20.1305	72.3773	226.92	19.0987	85.0904	211.796	20.1868	64.3009	185.283	15.9047	68.7432	224.969	22.7141	126.096	219.443	7.67529	149.802	207.117	34.8621	147.616	
74	0.616667	179.348	32.5814	140.484	164.181	38.2038	111.4	161.669	40.0813	90.0226	165.819	36.9215	66.9977	204.307	69.2089	94.1545	187.827	67.4642	68.8576	171.694	45.838	67.5752	215.822	57.8893	81.8964	200.162	51.2591	58.2836	178.076	31.5922	62.4538	225.383	39.2539	82.6311	203.225	34.0975	59.8531	184.682	22.7465	67.536	231.759	19.8866	84.6743	215.336	22.4106	62.9408	191.245	19.2836	68.3699	231.03	21.7045	123.926	223.004	7.46917	149.52	212.793	37.5123	144.184	
75	0.625	182.01	34.3026	139.375	164.817	38.2569	113.132	162.177	40.6557	89.9517	166.429	39.0178	62.3882	206.942	70.0697	91.5816	191.961	67.2982	69.0469	171.135	48.464	67.3829	219.551	59.0542	85.4442	202.06	55.3028	57.9417	178.855	31.7933	63.4688	228.646	40.6641	77.5325	211.229	39.591	60.7453	188.449	23.5795	67.4792	235.657	19.6822	85.4734	224.277	22.2736	63.5736	196.382	18.3656	65.0216	234.478	21.5283	124.204	225.906	7.69677	147.993	215.798	39.3145	145.384	
76	0.633333	183.669	33.8795	140.006	168.347	40.1307	107.96	166.368	40.1497	86.7831	166.919	37.9138	61.9971	211.601	68.2484	93.6466	193.228	70.2135	69.4541	174.009	44.1834	65.6207	222.145	60.2554	83.1007	206.72	55.2407	56.5267	183.365	36.2575	60.1391	229.919	41.4355	81.4579	210.815	37.7509	58.4905	190.596	24.2855	66.0801	236.717	22.0657	85.3131	226.182	24.742	63.7187	198.005	22.1273	65.2252	232.863	20.8804	127.857	231.879	9.23599	146.264	217.01	34.766	147.419	
77	0.641667	183.215	35.3848	138.369	170.18	36.2226	109.648	166.766	40.2426	86.4411	169.185	36.6273	61.2217	207.814	73.3688	90.0043	193.635	67.972	67.673	176.601	45.2171	63.239	223.293	59.571	80.8857	207.085	58.445	57.7287	185.746	33.5188	57.9267	233.027	41.0258	75.2352	213.573	40.9418	59.9693	191.461	27.6334	63.8626	239.644	19.4879	82.7275	225.569	22.7296	61.6677	199.234	17.8176	64.1044	234.286	23.1872	124.293	230.942	9.16346	144.155	218.78	35.08	143.048	
78	0.65	181.579	34.2197	138.717	166.638	36.0411	110	165.685	41.5921	80.6237	174.269	34.9176	60.0091	208.62	68.8555	91.8679	192.388	69.332	66.7456	176.176	45.2886	61.6692	223.091	58.8056	83.6133	210.3	54.8732	54.9368	186.119	34.4595	55.347	232.332	40.5604	76.6528	214.141	36.7695	55.5925	191.93	24.0665	62.6828	239.423	22.6037	79.885	228.729	23.1841	61.1989	202.58	21.8108	59.888	234.873	24.8224	126.158	228.591	12.2049	149.126	217.261	37.0635	142.112	
79	0.658333	179.978	33.588	135.306	165.562	36.1806	106.735	165.842	35.9934	85.501	173.663	34.0315	61.1469	203.479	72.3512	87.8806	192.415	65.1012	62.9238	172.242	46.2565	61.4262	219.848	61.0643	82.5147	208.096	57.0092	55.0249	182.129	32.3238	55.6084	229.692	42.8167	80.6911	212.873	40.022	55.8585	190.882	22.8509	61.034	240.617	23.6988	80.6081	227.198	29.071	62.8131	202.455	19.7216	56.3679	232.995	25.7274	127.083	227.459	15.4292	147.048	212.486	37.321	143.15	
80	0.666667	177.715	31.716	135.804	164.201	34.2468	103.278	163.726	35.1741	81.241	167.214	32.7243	57.0537	203.295	70.5417	86.4302	188.538	66.2204	62.7605	171.674	43.496	58.5672	217.744	60.4043	79.5304	206.54	54.9225	52.6817	182.614	33.8699	52.2155	228.833	44.4407	80.0351	213.679	41.9906	56.8871	190.812	25.1879	56.9113	237.515	27.8979	83.0444	226.44	27.8362	59.9544	202.081	19.256	55.9333	230.015	28.2381	126.869	225.729	14.8468	146.097	209.442	37.4942	142.474	
81	0.675	175.535	30.0021	133.919	162.694	30.0844	103.692	160.871	32.9207	80.6223	169.86	29.8579	59.8514	195.899	71.684	86.6309	183.93	65.2812	62.2405	167.453	40.9242	56.8683	215.943	61.2421	75.8923	201.345	52.3902	51.2209	180.081	31.9436	51.7071	227.193	45.6881	76.8426	209.392	42.5959	54.3975	191.599	21.6203	53.2439	236.427	29.0475	80.7962	226.97	28.1106	59.1894	204.552	22.2087	51.9383	228.148	27.3029	126.68	227.416	13.5447	146.32	210.741	36.9276	140.304	
82	0.683333	173.026	32.2095	133.1	161.949	30.3982	103.844	162.258	32.6549	79.7845	167.145	29.1157	57.9546	196.702	68.5539	82.8487	184.146	64.2665	61.0956	170.366	42.2487	55.2925	212.789	60.1106	77.3822	199.814	57.6969	52.6473	177.548	28.5062	50.9363	224.628	45.4082	74.7659	207.156	40.4898	53.6351	190.743	24.0485	52.4189	235.166	27.1142	83.0811	226.772	26.6049	58.5903	205.446	22.4919	50.8624	229.927	29.8038	121.384	226.323	18.5572	144.438	208.8	40.0614	137.533	
83	0.691667	177.433	32.6314	134.636	160.111	32.6804	103.96	158.106	33.0529	82.6325	161.861	28.8022	58.5733	198.535	66.668	82.7713	180.742	62.25	58.0407	162.482	40.4577	55.3574	214.838	56.1553	74.7159	199.81	52.3312	49.6515	176.715	30.0426	48.5663	222.713	41.3858	76.2292	210.588	37.1966	52.5923	184.433	23.3629	51.9925	233.089	23.9912	77.343	221.618	24.4519	56.7253	202.548	20.0214	49.5914	231.434	26.1829	120.598	227.436	12.7519	144.848	212.289	40.7016	137.617	
84	0.7	179.178	35.7777	134.528	163.662	34.9793	105.937	156.266	35.5779	81.5495	158.704	28.3575	62.6676	196.844	67.6204	79.2039	182.486	57.9668	56.372	161.832	39.1664	55.1649	212.795	51.9859	72.8727	195.6	47.1255	45.2586	172.665	25.4111	46.729	221.468	37.6398	69.9851	208.457	29.2979	47.8059	182.196	22.724	50.6041	230.838	14.2924	80.0013	222.484	14.0156	55.09	199.103	15.8841	49.6516	228.027	26.8336	117.248	227.411	13.8972	140.911	214.855	38.5652	133.008	
85	0.708333	183.682	39.4826	132.893	163.263	39.9555	108.53	158.56	37.9367	84.8872	152.5	32.2222	64.1698	201.92	61.155	77.6272	184.034	57.4258	54.8986	159.562	40.4206	55.1977	212.814	48.1609	65.5876	198.29	42.1982	43.9706	166.645	26.5288	47.089	221.603	25.2733	65.7354	204.731	27.0153	47.7241	177.865	16.4828	48.3118	225.534	6.78446	73.4595	215.921	6.34968	53.8491	189.722	11.0015	50.2817	227.471	18.7199	117.018	225.285	7.63945	141.409	218.232	33.6632	134.186	
